<?xml version="1.0" encoding="UTF-8" standalone="no"?>
<svg
   xmlns:dc="http://purl.org/dc/elements/1.1/"
   xmlns:cc="http://creativecommons.org/ns#"
   xmlns:rdf="http://www.w3.org/1999/02/22-rdf-syntax-ns#"
   xmlns:svg="http://www.w3.org/2000/svg"
   xmlns="http://www.w3.org/2000/svg"
   id="svg85"
   version="1.1"
   viewBox="0 0 210 150"
   height="150mm"
   width="210mm">
  <defs
     id="defs79" />
  <metadata
     id="metadata82">
    <rdf:RDF>
      <cc:Work
         rdf:about="">
        <dc:format>image/svg+xml</dc:format>
        <dc:type
           rdf:resource="http://purl.org/dc/dcmitype/StillImage" />
        <dc:title></dc:title>
      </cc:Work>
    </rdf:RDF>
  </metadata>
  <g
     id="layer1">
    <path
       id="path101"
       d="m 167.5725,147.52024 c -4.54411,-3.9022 -4.19281,-3.48796 -3.72509,-4.39244 1.17429,-2.27082 8.24821,-9.15123 16.51137,-16.05968 3.3624,-2.81115 4.91677,-4.27608 4.91789,-4.63492 0.001,-0.46149 -8.06607,-14.46553 -9.46578,-16.43125 -0.47059,-0.66089 -0.6527,-0.7336 -1.50129,-0.59944 -0.95982,0.15174 -0.98465,0.13176 -4.04817,-3.25713 -1.69534,-1.87539 -3.082,-3.508173 -3.08146,-3.628393 0.002,-0.37397 2.89557,-2.57467 5.63922,-4.28843 7.56881,-4.72766 9.93327,-6.59732 15.74009,-12.446173 6.37499,-6.421145 11.32668,-10.713158 13.32118,-11.546518 l 0.96321,-0.40245 1.79874,2.68977 c 0.98931,1.47937 2.136,3.269444 2.54821,3.97795 l 0.74946,1.288187 -0.78977,0.679324 c -7.0316,6.048212 -17.32727,15.2782 -21.84585,19.58463 l -0.63147,0.60182 1.08101,1.789173 c 0.59455,0.98403 3.66935,6.32782 6.83288,11.87507 l 5.75188,10.08593 -1.29542,1.16469 -1.29542,1.16469 0.86537,0.7528 0.86537,0.7528 -2.09868,1.982 c -1.15427,1.09009 -3.51528,3.19277 -5.24669,4.67261 -3.26139,2.78752 -20.16104,16.42768 -20.35322,16.42763 -0.0599,-2e-5 -1.0533,-0.81103 -2.20757,-1.80225 z m -40.13724,-10.57587 c -0.28857,-0.16214 -2.15203,-1.4077 -4.14102,-2.76792 l -3.61635,-2.47312 0.95241,-1.32569 c 2.05611,-2.86197 11.2966,-16.41994 12.10885,-17.76656 0.71663,-1.18809 0.86239,-1.6939 0.86932,-3.01685 0.0144,-2.74507 -0.87206,-19.943633 -1.03806,-20.140213 -0.087,-0.10304 -1.0419,-0.37311 -2.122,-0.60016 -1.08009,-0.22705 -2.1149,-0.56367 -2.29958,-0.74805 -0.69829,-0.697168 -1.14191,-9.666276 -0.50939,-10.298797 0.0995,-0.09945 2.69132,0.130908 5.75969,0.511904 3.06838,0.381 7.46055,0.882395 9.76039,1.114212 4.38845,0.442347 5.38219,0.66579 5.41148,1.216775 0.01,0.183925 0.15734,2.105168 0.32792,4.269438 l 0.31014,3.935018 1.44284,0.50468 c 1.85026,0.6472 4.04746,0.65498 7.93172,0.0281 1.69319,-0.27327 3.1577,-0.41768 3.25447,-0.32091 0.0968,0.0968 1.15858,6.52246 2.35957,14.279293 4.55653,29.42926 4.57091,29.54678 3.71975,30.39794 -0.45048,0.45049 -5.26146,1.11322 -8.26821,1.13897 -1.35001,0.0116 -1.36781,0.001 -1.62861,-0.94328 -0.14502,-0.52523 -1.10524,-6.10313 -2.13381,-12.39531 -1.02856,-6.29219 -1.96073,-11.53532 -2.07149,-11.65139 -0.21608,-0.22647 -1.42389,3.73158 -2.50598,8.21226 -1.10315,4.56787 -1.0095,4.3363 -1.72383,4.26279 -0.94937,-0.0977 -7.0863,-3.14659 -7.91079,-3.93018 -0.66928,-0.63607 -0.72334,-0.64711 -0.86906,-0.17752 -0.48121,1.55076 -1.38029,3.60472 -2.27987,5.20841 -2.53461,4.51846 -9.44873,13.80049 -10.26386,13.77896 -0.16608,-0.004 -0.53807,-0.14064 -0.82664,-0.30277 z m 15.06547,-25.60452 c 0.62149,-3.26846 1.49176,-6.38108 4.08038,-14.593843 1.20732,-3.83041 1.63954,-5.54309 1.43135,-5.67175 -0.37019,-0.2288 -5.23196,-0.60081 -5.41818,-0.41459 -0.36103,0.36103 -1.41061,16.249883 -1.29635,19.624603 0.10562,3.11983 0.28232,4.40543 0.56345,4.09959 0.042,-0.0457 0.32969,-1.41547 0.63935,-3.04401 z M 42.991474,128.0334 c -0.261345,-2.48045 -0.349508,-4.33429 -0.212633,-4.47117 0.261428,-0.26143 9.483193,0.71221 9.785715,1.03317 0.236524,0.25095 0.863289,6.87364 0.668909,7.06802 -0.189697,0.1897 -5.278294,0.57706 -7.80292,0.59398 l -1.992616,0.0134 -0.446455,-4.23735 z m 25.183275,3.41813 c -0.25744,-0.82185 -1.510081,-21.39574 -1.994348,-32.755933 -0.455726,-10.69071 -0.205424,-21.987817 0.642347,-28.991681 0.27131,-2.24141 0.424852,-7.52995 0.533146,-18.36343 l 0.152102,-15.21542 -7.23363,-7.04911 c -3.978496,-3.87701 -7.199028,-7.13812 -7.156735,-7.2469 0.08163,-0.20997 5.972369,-5.16305 7.598871,-6.38932 l 0.963608,-0.7265 5.415669,5.19688 c 2.978614,2.85829 5.567366,5.2317 5.752779,5.27425 0.347087,0.0796 3.070172,-3.24129 7.641712,-9.31945 1.435732,-1.9089 2.728471,-3.47144 2.872755,-3.47232 0.240042,-10e-4 6.324168,6.69816 7.138159,7.8603 0.317881,0.45384 -0.209989,1.24372 -5.689313,8.51318 l -6.039705,8.01292 -0.008,5.31323 c -0.0044,2.92228 -0.117764,9.89516 -0.251943,15.49529 l -0.243966,10.18206 1.389369,1.88534 c 3.372936,4.57701 14.854599,22.521591 14.854599,23.216131 0,0.17151 -0.12068,0.31183 -0.268192,0.31183 -0.544654,0 -2.797734,2.34878 -6.503659,6.7799 -3.418905,4.087923 -3.781152,4.615043 -3.566715,5.190043 0.131275,0.35199 1.419187,2.35128 2.862028,4.44285 1.442842,2.09157 3.786221,5.59956 5.207511,7.79552 l 2.584167,3.99267 -1.92833,1.79461 c -2.293756,2.1347 -5.886706,4.89493 -6.371669,4.89493 -0.189673,0 -0.794187,-0.85507 -1.343364,-1.90016 -2.085317,-3.96836 -6.877413,-10.56171 -7.344335,-10.10493 -0.10878,0.10642 -0.0016,2.64451 0.238229,5.6402 0.572018,7.14577 0.568089,8.38554 -0.02717,8.57205 -0.689025,0.21588 -6.261428,1.14119 -8.127809,1.34965 -1.278809,0.14282 -1.659677,0.1039 -1.748188,-0.17868 z M 78.627072,93.442607 c 1.007814,-1.19425 1.713075,-2.25807 1.633857,-2.4645 -0.07666,-0.19978 -0.82303,-1.46765 -1.658603,-2.8175 l -1.519221,-2.454268 -0.174793,1.04934 c -0.245782,1.475498 -0.433876,8.788208 -0.226049,8.788208 0.09436,0 0.969529,-0.94557 1.944809,-2.10128 z M 24.556439,127.61052 c -3.874827,-2.93646 -9.647627,-7.86177 -17.2550457,-14.72189 -2.461332,-2.21955 -4.5196105,-4.07412 -4.5739525,-4.12127 -0.05434,-0.0472 0.392257,-0.67225 0.992443,-1.38911 l 1.0912475,-1.30337 -0.6835235,-0.47789 c -0.375938,-0.26284 -0.994961,-0.72928 -1.375606,-1.03653 l -0.692082,-0.55865 0.766686,-1.01536 c 0.421677,-0.55845 2.6674005,-3.435393 4.9904955,-6.393223 2.3230957,-2.95782 6.8253857,-8.86035 10.0050907,-13.116738 3.179704,-4.256379 6.026304,-7.955871 6.325776,-8.221089 0.535742,-0.474464 0.571195,-0.459702 2.204981,0.918172 0.913269,0.770212 2.751769,2.2091 4.085556,3.197525 1.333792,0.988425 2.425073,1.962322 2.425073,2.164212 0,0.429052 -3.236469,5.25462 -7.635993,11.385238 -3.232338,4.50417 -5.00519,6.77082 -7.776176,9.942083 -0.901776,1.03204 -1.639592,2.06358 -1.639592,2.2923 0,0.4898 5.993013,6.49767 8.264491,8.28497 1.732116,1.36291 8.26753,6.29112 10.534674,7.94396 0.791637,0.57714 1.445182,1.1511 1.45232,1.27548 0.01149,0.20007 -3.758631,4.54178 -5.99359,6.90229 -0.454495,0.48003 -1.044747,0.87108 -1.311672,0.86899 -0.266926,-0.002 -2.157647,-1.27112 -4.201601,-2.8201 z m 89.499751,-4.42789 c -0.72142,-0.0408 -4.55807,-0.21069 -8.52588,-0.37754 -4.19986,-0.17661 -7.283865,-0.41348 -7.380935,-0.56688 -0.27417,-0.4333 -1.06958,-8.10542 -0.9725,-9.38023 l 0.0899,-1.18051 1.11492,0.0881 1.11492,0.0881 -0.002,-1.53099 c -7.6e-4,-0.84195 -0.28998,-6.07584 -0.64242,-11.630773 -0.35244,-5.55494 -0.72328,-11.949938 -0.82409,-14.211118 l -0.18329,-4.111233 1.02249,-0.275325 c 1.580295,-0.425528 6.098315,-1.336355 7.790645,-1.570585 1.28416,-0.177735 1.55751,-0.143254 1.75249,0.221064 0.26054,0.48683 1.09756,12.539047 1.73147,24.93155 0.23248,4.54495 0.44435,8.28667 0.47081,8.31494 0.0265,0.0283 1.17858,0.14932 2.56025,0.26902 l 2.51212,0.21763 0.34091,-4.46638 c 0.18742,-2.45651 0.4111,-8.066913 0.49698,-12.467583 l 0.15616,-8.00121 3.80385,-0.831388 c 4.93222,-1.07801 5.44373,-1.09173 5.68209,-0.15236 0.29239,1.152318 -0.34316,28.408281 -0.68294,29.288581 l -0.29323,0.75968 -2.08043,-0.16043 -2.08042,-0.16043 -0.12433,0.84359 c -0.0684,0.46397 -0.24398,1.93702 -0.39022,3.27342 -0.14624,1.33642 -0.33795,2.54644 -0.42602,2.68894 -0.14707,0.23795 -2.73567,0.27673 -6.0317,0.0904 z m -66.633031,-2.48985 c -4.149756,-0.64293 -4.295042,-0.6987 -4.566601,-1.75299 -0.2851,-1.10686 -0.884126,-9.87635 -1.481648,-21.690723 -0.226217,-4.47281 -0.495858,-9.72606 -0.599205,-11.673898 -0.267355,-5.03898 -0.315895,-4.880068 1.59337,-5.216379 3.105566,-0.547033 8.836616,-1.188424 9.016013,-1.009023 0.282,0.281999 0.578462,7.043332 0.888342,20.26031 0.155609,6.637063 0.40727,13.838153 0.559243,16.002413 0.15197,2.16427 0.295559,4.23015 0.319083,4.59086 0.0421,0.64552 0.0098,0.65645 -2.05591,0.69457 -1.154273,0.0213 -2.806982,-0.071 -3.672687,-0.20514 z m 80.704771,-44.983011 -3.24234,-1.724523 -0.83633,0.810601 c -0.45999,0.44583 -0.96527,0.810602 -1.12287,0.810602 -0.1576,0 -0.55379,-0.560741 -0.88042,-1.246093 -0.7508,-1.57532 -0.93276,-3.98332 -1.30343,-17.24851 -0.3364,-12.03895 -0.12533,-28.70893 0.39029,-30.82434 0.19343,-0.79356 0.43203,-1.98405 0.53024,-2.64553 0.0982,-0.66148 0.26086,-1.33587 0.36147,-1.49866 0.1165,-0.18849 2.56109,-0.44118 6.73185,-0.69585 3.60191,-0.21993 7.23933,-0.45983 8.08315,-0.53311 l 1.53422,-0.13323 -0.16201,3.08111 c -0.40019,7.6113 -0.36814,7.41793 -1.2924,7.79661 -0.45486,0.18637 -1.85997,0.48287 -3.12246,0.65887 l -2.29543,0.32002 v 6.25346 c 0,3.4394 0.0911,6.30979 0.20256,6.37864 0.1114,0.0688 2.14778,0.31371 4.52527,0.54414 4.67748,0.45333 5.76556,0.62083 5.76556,0.88756 0,0.1474 -2.44904,8.94153 -2.78144,9.98771 -0.0942,0.29656 -0.79924,0.33982 -3.78664,0.23239 -3.57276,-0.12849 -3.67446,-0.11719 -3.80548,0.4226 -0.0741,0.30504 -0.16081,2.25732 -0.19281,4.3384 l -0.0582,3.78379 3.91201,2.04326 c 2.1516,1.12379 4.00773,2.13899 4.12474,2.256 0.25665,0.25665 -1.46903,3.19113 -2.75588,4.6863 -0.87107,1.012101 -4.14299,2.995922 -4.92573,2.986556 -0.19532,-0.0024 -1.81419,-0.780283 -3.5975,-1.728773 z M 98.597145,74.849702 c -0.0789,-0.127642 -0.25146,-0.994906 -0.3835,-1.927256 -0.13204,-0.93235 -0.531,-2.26765 -0.88659,-2.96733 l -0.64653,-1.27215 -3.761433,-0.74184 c -2.068788,-0.40802 -3.857415,-0.8866 -3.974726,-1.06354 -0.117311,-0.17693 -0.122545,-2.85978 -0.01162,-5.96189 0.11091,-3.1021 0.179548,-11.68187 0.152524,-19.06614 l -0.04913,-13.42595 3.530084,-0.82947 c 1.941541,-0.4562 3.694131,-0.99351 3.894631,-1.19401 0.20051,-0.20051 0.44117,-0.81802 0.5348,-1.37225 0.18972,-1.12291 1.03925,-2.50456 2.675305,-4.35101 l 1.09251,-1.23301 6.9087,2.40701 c 3.79978,1.32386 6.98623,2.48002 7.08099,2.56924 0.0948,0.0892 -0.51415,2.04933 -1.35313,4.3558 l -1.52542,4.19356 0.69729,0.83303 c 0.38351,0.45816 1.15174,1.37175 1.70717,2.0302 l 1.00988,1.19717 -1.00988,1.16399 c -0.55543,0.6402 -2.2087,2.44679 -3.67394,4.01466 l -2.66406,2.85067 4.70004,4.91886 4.70004,4.91886 -0.40975,0.79237 c -0.68077,1.31647 -3.16319,5.34765 -4.02983,6.54401 -0.9606,1.32606 -1.00642,2.06501 -0.25054,4.04024 0.55249,1.44373 0.55363,1.47914 0.0656,2.02067 -0.51824,0.57502 -5.47479,3.13892 -10.5238,5.4437 -3.075285,1.403813 -3.360645,1.49205 -3.595655,1.111806 z m 6.627635,-14.043276 c 0.74518,-0.37761 1.35487,-0.77504 1.35487,-0.88318 0,-0.36592 -5.96656,-6.14913 -6.10799,-5.92029 -0.0772,0.12488 -0.22648,2.26331 -0.33178,4.75208 l -0.19146,4.52503 1.96074,-0.89354 c 1.07841,-0.49145 2.57044,-1.20249 3.31562,-1.5801 z m -3.00191,-26.13916 c 0.8091,-0.87393 1.47109,-1.75082 1.47109,-1.94866 0,-0.43061 -2.80388,-1.53426 -3.35783,-1.32169 -0.31101,0.11935 -0.35492,0.46905 -0.22044,1.75565 0.0924,0.88364 0.16792,1.94346 0.16792,2.35514 0,0.41169 0.10534,0.74852 0.23408,0.74852 0.12874,0 0.89607,-0.71503 1.70518,-1.58896 z m -56.025594,37.33208 c -1.169082,-1.22499 -26.631704,-33.09484 -29.253327,-36.61442 -1.055525,-1.41707 -1.919137,-2.69618 -1.919137,-2.84248 0,-0.33941 1.156854,-1.36044 4.379298,-3.86514 1.878944,-1.46044 3.01532,-2.60036 4.214654,-4.22778 0.903144,-1.22551 2.407263,-3.26273 3.342488,-4.52714 2.984048,-4.03441 9.369429,-11.8072002 11.194621,-13.6269802 2.932651,-2.92396 5.637089,-3.91109 9.222023,-3.36607 2.418419,0.36767 5.947796,1.53027 5.947796,1.95924 0,0.18247 -1.150994,1.68022 -2.557765,3.32834 -2.545626,2.9823502 -9.294542,11.4580002 -12.782624,16.0531102 -2.730837,3.59753 -6.688853,9.915 -6.692544,10.6821 -0.0021,0.44726 0.645113,1.43015 1.986704,3.01685 1.094439,1.29439 4.796954,5.89496 8.227813,10.22349 3.430856,4.32852 8.142811,10.22778 10.471009,13.10946 2.3282,2.88168 4.233089,5.37926 4.233089,5.55018 0,0.75852 -7.73975,6.131 -8.832492,6.131 -0.13351,0 -0.665231,-0.44269 -1.181606,-0.98376 z m 103.142954,-1.26649 c -2.23641,-0.48451 -4.0957,-0.88472 -4.13178,-0.88935 -0.28916,-0.0371 0.13738,-13.25562 0.85102,-26.37307 0.21194,-3.89567 0.50957,-11.80506 0.6614,-17.57643 0.42719,-16.2388102 0.71668,-22.2265002 1.08564,-22.4545202 0.17547,-0.10845 1.03503,-0.27672 1.91013,-0.37394 3.40169,-0.37791 5.91492,-0.93421 7.75172,-1.71584 1.75986,-0.74889 2.00939,-0.79079 3.08973,-0.51876 3.398,0.85563 5.66653,2.33359 14.77547,9.6262602 l 1.03416,0.82795 -2.4301,2.26422 -2.4301,2.26422 2.04124,1.89219 c 1.12268,1.0407 2.03758,2.02556 2.03309,2.18857 -0.004,0.163 -2.47775,2.71606 -5.49616,5.67345 l -5.48802,5.37707 2.01896,2.45893 c 1.82016,2.21679 7.18206,8.99773 13.07108,16.53035 1.20012,1.53506 2.18203,2.91284 2.18203,3.06173 0,0.32026 -5.22889,5.23587 -6.79358,6.38656 -0.59733,0.43928 -1.2515,0.73522 -1.45369,0.65763 -0.35214,-0.13513 -11.24305,-13.58881 -14.42205,-17.81573 -0.84098,-1.1182 -1.61884,-2.03309 -1.72857,-2.03309 -0.23194,0 -0.42733,2.3321 -0.79125,9.44405 -0.2623,5.12585 -0.77222,18.82751 -0.7786,20.9212 l -0.003,1.11492 -1.24609,-0.0288 c -0.68535,-0.0158 -3.07588,-0.42523 -5.31228,-0.90975 z m 14.61321,-54.50085 c 0.30084,-0.48677 -5.19698,-5.21954 -5.59774,-4.81878 -0.0862,0.0862 -0.22002,2.49427 -0.29737,5.35125 l -0.14063,5.19451 2.93155,-2.72381 c 1.61234,-1.4981 3.00923,-2.84952 3.10419,-3.00317 z"
       style="fill:#ffffff;stroke-width:0.262335" />
  </g>
</svg>
